<svg width="404" height="52" viewBox="0 0 404 52" fill="none" xmlns="http://www.w3.org/2000/svg">
<g filter="url(#filter0_d_1_1396)">
<rect x="2" y="1" width="400" height="48" rx="8" fill="white"/>
<rect x="2.5" y="1.5" width="399" height="47" rx="7.5" stroke="#D0D5DD"/>
<g clip-path="url(#clip0_1_1396)">
<path d="M130.266 25.2763C130.266 24.4605 130.2 23.6404 130.059 22.8379H118.74V27.4589H125.222C124.953 28.9492 124.089 30.2676 122.823 31.1054V34.1037H126.69C128.961 32.0137 130.266 28.9272 130.266 25.2763Z" fill="#4285F4"/>
<path d="M118.74 37.0008C121.977 37.0008 124.706 35.9382 126.695 34.1039L122.828 31.1055C121.752 31.8375 120.363 32.252 118.745 32.252C115.614 32.252 112.959 30.1399 112.007 27.3003H108.017V30.3912C110.054 34.4434 114.203 37.0008 118.74 37.0008Z" fill="#34A853"/>
<path d="M112.003 27.3002C111.5 25.8099 111.5 24.196 112.003 22.7057V19.6147H108.017C106.315 23.0055 106.315 27.0004 108.017 30.3912L112.003 27.3002Z" fill="#FBBC04"/>
<path d="M118.74 17.7497C120.451 17.7232 122.104 18.367 123.343 19.5487L126.769 16.1226C124.6 14.0855 121.721 12.9655 118.74 13.0008C114.203 13.0008 110.054 15.5582 108.017 19.6148L112.003 22.7058C112.951 19.8617 115.609 17.7497 118.74 17.7497Z" fill="#EA4335"/>
</g>
<path d="M149.972 22.5625C149.919 22.0663 149.695 21.6799 149.301 21.4034C148.911 21.1269 148.403 20.9886 147.778 20.9886C147.339 20.9886 146.962 21.0549 146.648 21.1875C146.333 21.3201 146.093 21.5 145.926 21.7273C145.759 21.9545 145.674 22.214 145.67 22.5057C145.67 22.7481 145.725 22.9583 145.835 23.1364C145.949 23.3144 146.102 23.4659 146.295 23.5909C146.489 23.7121 146.703 23.8144 146.938 23.8977C147.172 23.9811 147.409 24.0511 147.648 24.108L148.739 24.3807C149.178 24.483 149.6 24.6212 150.006 24.7955C150.415 24.9697 150.78 25.1894 151.102 25.4545C151.428 25.7197 151.686 26.0398 151.875 26.4148C152.064 26.7898 152.159 27.2292 152.159 27.733C152.159 28.4148 151.985 29.0152 151.636 29.5341C151.288 30.0492 150.784 30.4527 150.125 30.7443C149.47 31.0322 148.676 31.1761 147.744 31.1761C146.839 31.1761 146.053 31.036 145.386 30.7557C144.723 30.4754 144.205 30.0663 143.83 29.5284C143.458 28.9905 143.258 28.3352 143.227 27.5625H145.301C145.331 27.9678 145.456 28.3049 145.676 28.5739C145.896 28.8428 146.182 29.0436 146.534 29.1761C146.89 29.3087 147.288 29.375 147.727 29.375C148.186 29.375 148.587 29.3068 148.932 29.1705C149.28 29.0303 149.553 28.8371 149.75 28.5909C149.947 28.3409 150.047 28.0492 150.051 27.7159C150.047 27.4129 149.958 27.1629 149.784 26.9659C149.61 26.7652 149.366 26.5985 149.051 26.4659C148.741 26.3295 148.377 26.2083 147.96 26.1023L146.636 25.7614C145.678 25.5152 144.92 25.142 144.364 24.642C143.811 24.1383 143.534 23.4697 143.534 22.6364C143.534 21.9508 143.72 21.3504 144.091 20.8352C144.466 20.3201 144.975 19.9205 145.619 19.6364C146.263 19.3485 146.992 19.2045 147.807 19.2045C148.633 19.2045 149.356 19.3485 149.977 19.6364C150.602 19.9205 151.093 20.3163 151.449 20.8239C151.805 21.3277 151.989 21.9072 152 22.5625H149.972ZM153.947 31V22.2727H156.004V31H153.947ZM154.982 21.0341C154.656 21.0341 154.375 20.9261 154.141 20.7102C153.906 20.4905 153.788 20.2273 153.788 19.9205C153.788 19.6098 153.906 19.3466 154.141 19.1307C154.375 18.911 154.656 18.8011 154.982 18.8011C155.311 18.8011 155.591 18.911 155.822 19.1307C156.057 19.3466 156.175 19.6098 156.175 19.9205C156.175 20.2273 156.057 20.4905 155.822 20.7102C155.591 20.9261 155.311 21.0341 154.982 21.0341ZM161.915 34.4545C161.176 34.4545 160.542 34.3542 160.011 34.1534C159.481 33.9564 159.055 33.6913 158.733 33.358C158.411 33.0246 158.188 32.6553 158.062 32.25L159.915 31.8011C159.998 31.9716 160.119 32.1402 160.278 32.3068C160.438 32.4773 160.652 32.6174 160.92 32.7273C161.193 32.8409 161.536 32.8977 161.949 32.8977C162.532 32.8977 163.015 32.7557 163.398 32.4716C163.78 32.1913 163.972 31.7292 163.972 31.0852V29.4318H163.869C163.763 29.6439 163.608 29.8617 163.403 30.0852C163.203 30.3087 162.936 30.4962 162.602 30.6477C162.273 30.7992 161.858 30.875 161.358 30.875C160.688 30.875 160.08 30.7178 159.534 30.4034C158.992 30.0852 158.561 29.6117 158.239 28.983C157.92 28.3504 157.761 27.5587 157.761 26.608C157.761 25.6496 157.92 24.8409 158.239 24.1818C158.561 23.5189 158.994 23.017 159.54 22.6761C160.085 22.3314 160.693 22.1591 161.364 22.1591C161.875 22.1591 162.295 22.2462 162.625 22.4205C162.958 22.5909 163.223 22.7973 163.42 23.0398C163.617 23.2784 163.767 23.5038 163.869 23.7159H163.983V22.2727H166.011V31.142C166.011 31.8883 165.833 32.5057 165.477 32.9943C165.121 33.483 164.634 33.8485 164.017 34.0909C163.4 34.3333 162.699 34.4545 161.915 34.4545ZM161.932 29.2614C162.367 29.2614 162.739 29.1553 163.045 28.9432C163.352 28.7311 163.585 28.4261 163.744 28.0284C163.903 27.6307 163.983 27.1534 163.983 26.5966C163.983 26.0473 163.903 25.5663 163.744 25.1534C163.589 24.7405 163.358 24.4205 163.051 24.1932C162.748 23.9621 162.375 23.8466 161.932 23.8466C161.473 23.8466 161.091 23.9659 160.784 24.2045C160.477 24.4432 160.246 24.7708 160.091 25.1875C159.936 25.6004 159.858 26.0701 159.858 26.5966C159.858 27.1307 159.936 27.5985 160.091 28C160.25 28.3977 160.483 28.7083 160.79 28.9318C161.1 29.1515 161.481 29.2614 161.932 29.2614ZM170.176 25.8864V31H168.119V22.2727H170.085V23.7557H170.188C170.388 23.267 170.708 22.8788 171.148 22.5909C171.591 22.303 172.138 22.1591 172.79 22.1591C173.392 22.1591 173.917 22.2879 174.364 22.5455C174.814 22.803 175.163 23.1761 175.409 23.6648C175.659 24.1534 175.782 24.7462 175.778 25.4432V31H173.722V25.7614C173.722 25.178 173.57 24.7216 173.267 24.392C172.968 24.0625 172.553 23.8977 172.023 23.8977C171.663 23.8977 171.343 23.9773 171.062 24.1364C170.786 24.2917 170.568 24.517 170.409 24.8125C170.254 25.108 170.176 25.4659 170.176 25.8864ZM187.401 27.3295V22.2727H189.457V31H187.463V29.4489H187.372C187.175 29.9375 186.851 30.3371 186.401 30.6477C185.954 30.9583 185.402 31.1136 184.747 31.1136C184.175 31.1136 183.67 30.9867 183.23 30.733C182.795 30.4754 182.454 30.1023 182.207 29.6136C181.961 29.1212 181.838 28.5265 181.838 27.8295V22.2727H183.895V27.5114C183.895 28.0644 184.046 28.5038 184.349 28.8295C184.652 29.1553 185.05 29.3182 185.543 29.3182C185.846 29.3182 186.139 29.2443 186.423 29.0966C186.707 28.9489 186.94 28.7292 187.122 28.4375C187.308 28.142 187.401 27.7727 187.401 27.3295ZM191.572 34.2727V22.2727H193.595V23.7159H193.714C193.821 23.5038 193.97 23.2784 194.163 23.0398C194.357 22.7973 194.618 22.5909 194.947 22.4205C195.277 22.2462 195.697 22.1591 196.209 22.1591C196.883 22.1591 197.491 22.3314 198.033 22.6761C198.578 23.017 199.01 23.5227 199.328 24.1932C199.65 24.8598 199.811 25.678 199.811 26.6477C199.811 27.6061 199.654 28.4205 199.339 29.0909C199.025 29.7614 198.597 30.2727 198.055 30.625C197.514 30.9773 196.9 31.1534 196.214 31.1534C195.714 31.1534 195.3 31.0701 194.97 30.9034C194.641 30.7367 194.375 30.536 194.175 30.3011C193.978 30.0625 193.824 29.8371 193.714 29.625H193.629V34.2727H191.572ZM193.589 26.6364C193.589 27.2008 193.669 27.6951 193.828 28.1193C193.991 28.5436 194.224 28.875 194.527 29.1136C194.834 29.3485 195.205 29.4659 195.641 29.4659C196.095 29.4659 196.476 29.3447 196.783 29.1023C197.089 28.8561 197.321 28.5208 197.476 28.0966C197.635 27.6686 197.714 27.1818 197.714 26.6364C197.714 26.0947 197.637 25.6136 197.482 25.1932C197.326 24.7727 197.095 24.4432 196.788 24.2045C196.482 23.9659 196.099 23.8466 195.641 23.8466C195.201 23.8466 194.828 23.9621 194.521 24.1932C194.214 24.4242 193.982 24.7481 193.822 25.1648C193.667 25.5814 193.589 26.072 193.589 26.6364ZM207.342 31L204.876 22.2727H206.973L208.507 28.4091H208.587L210.155 22.2727H212.229L213.797 28.375H213.882L215.393 22.2727H217.496L215.024 31H212.882L211.246 25.1023H211.126L209.49 31H207.342ZM218.932 31V22.2727H220.989V31H218.932ZM219.966 21.0341C219.64 21.0341 219.36 20.9261 219.125 20.7102C218.89 20.4905 218.773 20.2273 218.773 19.9205C218.773 19.6098 218.89 19.3466 219.125 19.1307C219.36 18.911 219.64 18.8011 219.966 18.8011C220.295 18.8011 220.576 18.911 220.807 19.1307C221.042 19.3466 221.159 19.6098 221.159 19.9205C221.159 20.2273 221.042 20.4905 220.807 20.7102C220.576 20.9261 220.295 21.0341 219.966 21.0341ZM227.462 22.2727V23.8636H222.445V22.2727H227.462ZM223.683 20.1818H225.74V28.375C225.74 28.6515 225.782 28.8636 225.865 29.0114C225.952 29.1553 226.066 29.2538 226.206 29.3068C226.346 29.3598 226.501 29.3864 226.672 29.3864C226.801 29.3864 226.918 29.3769 227.024 29.358C227.134 29.339 227.217 29.322 227.274 29.3068L227.621 30.9148C227.511 30.9527 227.354 30.9943 227.149 31.0398C226.948 31.0852 226.702 31.1117 226.411 31.1193C225.895 31.1345 225.431 31.0568 225.018 30.8864C224.606 30.7121 224.278 30.4432 224.036 30.0795C223.797 29.7159 223.679 29.2614 223.683 28.7159V20.1818ZM231.426 25.8864V31H229.369V19.3636H231.381V23.7557H231.483C231.688 23.2633 232.004 22.875 232.432 22.5909C232.864 22.303 233.413 22.1591 234.08 22.1591C234.686 22.1591 235.214 22.286 235.665 22.5398C236.116 22.7936 236.464 23.1648 236.71 23.6534C236.96 24.142 237.085 24.7386 237.085 25.4432V31H235.028V25.7614C235.028 25.1742 234.877 24.7178 234.574 24.392C234.275 24.0625 233.854 23.8977 233.312 23.8977C232.949 23.8977 232.623 23.9773 232.335 24.1364C232.051 24.2917 231.828 24.517 231.665 24.8125C231.506 25.108 231.426 25.4659 231.426 25.8864ZM251.037 23.0795C250.942 22.7727 250.812 22.4981 250.645 22.2557C250.482 22.0095 250.285 21.7992 250.054 21.625C249.827 21.4508 249.565 21.3201 249.27 21.233C248.974 21.142 248.652 21.0966 248.304 21.0966C247.679 21.0966 247.122 21.2538 246.634 21.5682C246.145 21.8826 245.76 22.3447 245.48 22.9545C245.204 23.5606 245.065 24.2992 245.065 25.1705C245.065 26.0492 245.204 26.7936 245.48 27.4034C245.757 28.0133 246.141 28.4773 246.634 28.7955C247.126 29.1098 247.698 29.267 248.349 29.267C248.94 29.267 249.452 29.1534 249.884 28.9261C250.319 28.6989 250.654 28.3769 250.889 27.9602C251.124 27.5398 251.241 27.0473 251.241 26.483L251.719 26.5568H248.56V24.9091H253.281V26.3068C253.281 27.303 253.069 28.1648 252.645 28.892C252.221 29.6193 251.637 30.1799 250.895 30.5739C250.152 30.964 249.3 31.1591 248.338 31.1591C247.266 31.1591 246.325 30.9186 245.514 30.4375C244.707 29.9527 244.077 29.2652 243.622 28.375C243.171 27.4811 242.946 26.4205 242.946 25.1932C242.946 24.2538 243.079 23.4148 243.344 22.6761C243.613 21.9375 243.988 21.3106 244.469 20.7955C244.95 20.2765 245.514 19.8826 246.162 19.6136C246.81 19.3409 247.514 19.2045 248.276 19.2045C248.92 19.2045 249.52 19.2992 250.077 19.4886C250.634 19.6742 251.128 19.9394 251.56 20.2841C251.995 20.6288 252.353 21.0379 252.634 21.5114C252.914 21.9848 253.098 22.5076 253.185 23.0795H251.037ZM259.036 31.1705C258.183 31.1705 257.445 30.983 256.82 30.608C256.195 30.233 255.71 29.7083 255.365 29.0341C255.024 28.3598 254.854 27.572 254.854 26.6705C254.854 25.7689 255.024 24.9792 255.365 24.3011C255.71 23.6231 256.195 23.0966 256.82 22.7216C257.445 22.3466 258.183 22.1591 259.036 22.1591C259.888 22.1591 260.626 22.3466 261.251 22.7216C261.876 23.0966 262.359 23.6231 262.7 24.3011C263.045 24.9792 263.217 25.7689 263.217 26.6705C263.217 27.572 263.045 28.3598 262.7 29.0341C262.359 29.7083 261.876 30.233 261.251 30.608C260.626 30.983 259.888 31.1705 259.036 31.1705ZM259.047 29.5227C259.509 29.5227 259.895 29.3958 260.206 29.142C260.517 28.8845 260.748 28.5398 260.899 28.108C261.054 27.6761 261.132 27.1951 261.132 26.6648C261.132 26.1307 261.054 25.6477 260.899 25.2159C260.748 24.7803 260.517 24.4337 260.206 24.1761C259.895 23.9186 259.509 23.7898 259.047 23.7898C258.573 23.7898 258.179 23.9186 257.865 24.1761C257.554 24.4337 257.321 24.7803 257.166 25.2159C257.015 25.6477 256.939 26.1307 256.939 26.6648C256.939 27.1951 257.015 27.6761 257.166 28.108C257.321 28.5398 257.554 28.8845 257.865 29.142C258.179 29.3958 258.573 29.5227 259.047 29.5227ZM268.77 31.1705C267.918 31.1705 267.179 30.983 266.554 30.608C265.929 30.233 265.444 29.7083 265.099 29.0341C264.759 28.3598 264.588 27.572 264.588 26.6705C264.588 25.7689 264.759 24.9792 265.099 24.3011C265.444 23.6231 265.929 23.0966 266.554 22.7216C267.179 22.3466 267.918 22.1591 268.77 22.1591C269.622 22.1591 270.361 22.3466 270.986 22.7216C271.611 23.0966 272.094 23.6231 272.435 24.3011C272.779 24.9792 272.952 25.7689 272.952 26.6705C272.952 27.572 272.779 28.3598 272.435 29.0341C272.094 29.7083 271.611 30.233 270.986 30.608C270.361 30.983 269.622 31.1705 268.77 31.1705ZM268.781 29.5227C269.243 29.5227 269.63 29.3958 269.94 29.142C270.251 28.8845 270.482 28.5398 270.634 28.108C270.789 27.6761 270.866 27.1951 270.866 26.6648C270.866 26.1307 270.789 25.6477 270.634 25.2159C270.482 24.7803 270.251 24.4337 269.94 24.1761C269.63 23.9186 269.243 23.7898 268.781 23.7898C268.308 23.7898 267.914 23.9186 267.599 24.1761C267.289 24.4337 267.056 24.7803 266.901 25.2159C266.749 25.6477 266.673 26.1307 266.673 26.6648C266.673 27.1951 266.749 27.6761 266.901 28.108C267.056 28.5398 267.289 28.8845 267.599 29.142C267.914 29.3958 268.308 29.5227 268.781 29.5227ZM278.493 34.4545C277.754 34.4545 277.12 34.3542 276.589 34.1534C276.059 33.9564 275.633 33.6913 275.311 33.358C274.989 33.0246 274.766 32.6553 274.641 32.25L276.493 31.8011C276.576 31.9716 276.697 32.1402 276.857 32.3068C277.016 32.4773 277.23 32.6174 277.499 32.7273C277.771 32.8409 278.114 32.8977 278.527 32.8977C279.11 32.8977 279.593 32.7557 279.976 32.4716C280.358 32.1913 280.55 31.7292 280.55 31.0852V29.4318H280.447C280.341 29.6439 280.186 29.8617 279.982 30.0852C279.781 30.3087 279.514 30.4962 279.18 30.6477C278.851 30.7992 278.436 30.875 277.936 30.875C277.266 30.875 276.658 30.7178 276.112 30.4034C275.571 30.0852 275.139 29.6117 274.817 28.983C274.499 28.3504 274.339 27.5587 274.339 26.608C274.339 25.6496 274.499 24.8409 274.817 24.1818C275.139 23.5189 275.572 23.017 276.118 22.6761C276.663 22.3314 277.271 22.1591 277.942 22.1591C278.453 22.1591 278.874 22.2462 279.203 22.4205C279.536 22.5909 279.802 22.7973 279.999 23.0398C280.196 23.2784 280.345 23.5038 280.447 23.7159H280.561V22.2727H282.589V31.142C282.589 31.8883 282.411 32.5057 282.055 32.9943C281.699 33.483 281.213 33.8485 280.595 34.0909C279.978 34.3333 279.277 34.4545 278.493 34.4545ZM278.51 29.2614C278.946 29.2614 279.317 29.1553 279.624 28.9432C279.93 28.7311 280.163 28.4261 280.322 28.0284C280.482 27.6307 280.561 27.1534 280.561 26.5966C280.561 26.0473 280.482 25.5663 280.322 25.1534C280.167 24.7405 279.936 24.4205 279.629 24.1932C279.326 23.9621 278.953 23.8466 278.51 23.8466C278.052 23.8466 277.669 23.9659 277.362 24.2045C277.055 24.4432 276.824 24.7708 276.669 25.1875C276.514 25.6004 276.436 26.0701 276.436 26.5966C276.436 27.1307 276.514 27.5985 276.669 28C276.828 28.3977 277.061 28.7083 277.368 28.9318C277.679 29.1515 278.059 29.2614 278.51 29.2614ZM286.754 19.3636V31H284.697V19.3636H286.754ZM292.733 31.1705C291.858 31.1705 291.102 30.9886 290.466 30.625C289.833 30.2576 289.347 29.7386 289.006 29.0682C288.665 28.3939 288.494 27.6004 288.494 26.6875C288.494 25.7898 288.665 25.0019 289.006 24.3239C289.35 23.642 289.831 23.1117 290.449 22.733C291.066 22.3504 291.792 22.1591 292.625 22.1591C293.163 22.1591 293.67 22.2462 294.148 22.4205C294.629 22.5909 295.053 22.8561 295.42 23.2159C295.792 23.5758 296.083 24.0341 296.295 24.5909C296.508 25.1439 296.614 25.803 296.614 26.5682V27.1989H289.46V25.8125H294.642C294.638 25.4186 294.553 25.0682 294.386 24.7614C294.22 24.4508 293.987 24.2064 293.688 24.0284C293.392 23.8504 293.047 23.7614 292.653 23.7614C292.233 23.7614 291.864 23.8636 291.545 24.0682C291.227 24.2689 290.979 24.5341 290.801 24.8636C290.627 25.1894 290.538 25.5473 290.534 25.9375V27.1477C290.534 27.6553 290.627 28.0909 290.812 28.4545C290.998 28.8144 291.258 29.0909 291.591 29.2841C291.924 29.4735 292.314 29.5682 292.761 29.5682C293.061 29.5682 293.331 29.5265 293.574 29.4432C293.816 29.3561 294.027 29.2292 294.205 29.0625C294.383 28.8958 294.517 28.6894 294.608 28.4432L296.528 28.6591C296.407 29.1667 296.176 29.6098 295.835 29.9886C295.498 30.3636 295.066 30.6553 294.54 30.8636C294.013 31.0682 293.411 31.1705 292.733 31.1705Z" fill="#1F1F22"/>
</g>
<defs>
<filter id="filter0_d_1_1396" x="0" y="0" width="404" height="52" filterUnits="userSpaceOnUse" color-interpolation-filters="sRGB">
<feFlood flood-opacity="0" result="BackgroundImageFix"/>
<feColorMatrix in="SourceAlpha" type="matrix" values="0 0 0 0 0 0 0 0 0 0 0 0 0 0 0 0 0 0 127 0" result="hardAlpha"/>
<feOffset dy="1"/>
<feGaussianBlur stdDeviation="1"/>
<feColorMatrix type="matrix" values="0 0 0 0 0.0627451 0 0 0 0 0.0941176 0 0 0 0 0.156863 0 0 0 0.05 0"/>
<feBlend mode="normal" in2="BackgroundImageFix" result="effect1_dropShadow_1_1396"/>
<feBlend mode="normal" in="SourceGraphic" in2="effect1_dropShadow_1_1396" result="shape"/>
</filter>
<clipPath id="clip0_1_1396">
<rect width="24" height="24" fill="white" transform="translate(106.5 13)"/>
</clipPath>
</defs>
</svg>
